# xmcd
#
# Track frame offsets:
#	150
#	13059
#	26831
#	45586
#	67179
#	85458
#	105464
#	119156
#	143716
#
# Disc length: 2550 seconds
#
# Revision: 1
# Processed by: cddbd v1.5PL3 Copyright (c) Steve Scherf et al.
# Submitted via: audiograbber 1.82.01
#
DISCID=8009f409
DTITLE=Eric Clapton - Archives Pathfinder - Outtakes - Mid Valley Records - Dis
DTITLE=c 6
DYEAR=1900
DGENRE=
TTITLE0=Eric Clapton - Watcha Gonna Do #1 (Originally Unreleased Song With Pete
TTITLE0=r Tosh)
TTITLE1=Eric Clapton - Watcha Gonna Do #2 (Originally Unreleased Song With Pete
TTITLE1=r Tosh)
TTITLE2=Eric Clapton - High (Alternate Mix Version Without Guitar Solo and Second
TTITLE2=Chorus Overdub)
TTITLE3=Eric Clapton - Opposite (Alternate Mix Without Auld Lang Syne)
TTITLE4=Eric Clapton - Burial (Previously Unreleased Song With Peter Tosh)
TTITLE5=Eric Clapton - Swing Low Sweet Chariot (Previously Unreleased Different
TTITLE5=Take)
TTITLE6=Eric Clapton - Where There's a Will There's a Way
TTITLE7=Eric Clapton - Don't Know Why (1st Solo Album 1st Session)
TTITLE8=Eric Clapton - Blues in A (Instrumental Blues Jam)
EXTD=
EXTT0=
EXTT1=
EXTT2=
EXTT3=
EXTT4=
EXTT5=
EXTT6=
EXTT7=
EXTT8=
PLAYORDER=
